<?xml version="1.0" encoding="UTF-8"?>
<svg width="635px" height="107px" viewBox="0 0 635 107" version="1.1" xmlns="http://www.w3.org/2000/svg" xmlns:xlink="http://www.w3.org/1999/xlink">
    <!-- Generator: Sketch 52.2 (67145) - http://www.bohemiancoding.com/sketch -->
    <title>geldboost-logo-wht</title>
    <desc>Created with Sketch.</desc>
    <g id="geldboost-logo-wht" stroke="none" stroke-width="1" fill="none" fill-rule="evenodd">
        <g id="geldboost-logo" transform="translate(-22.000000, -16.000000)" fill="#FFFFFF">
            <g id="geldboost-icon" transform="translate(62.167333, 69.715449) rotate(35.000000) translate(-62.167333, -69.715449) translate(30.167333, 7.715449)" fill-rule="nonzero">
                <g id="Group-6" transform="translate(-0.000000, 0.000000)">
                    <path d="M21.5963452,94.023391 L17.3607436,98.6984077 C16.6714808,99.4591769 15.7647527,99.9893487 14.763719,100.216911 C12.0709955,100.829039 9.39188363,99.1423835 8.77975515,96.44966 L1.11967266,62.7533286 C-0.364517085,56.2244499 2.37346289,49.4618663 7.98176194,45.8045368 L8.81226134,45.2629449 C8.51625209,47.620073 8.36012075,49.8797882 8.36012075,51.9974647 C8.36012075,63.3652842 12.6567526,77.1039282 21.2037202,93.2582689 L21.5963452,94.023391 Z M54.8857789,45.0881434 L56.1368524,45.9040036 C61.7451514,49.561333 64.4831314,56.3239166 62.9989417,62.8527954 L55.3388592,96.5491268 C54.7267307,99.2418503 52.0476188,100.928506 49.3548953,100.316377 C48.3538616,100.088815 47.4471335,99.5586436 46.7578707,98.7978745 L42.4506008,94.0437543 L42.8478379,93.234328 C51.1747977,76.968535 55.3601207,63.2386714 55.3601207,51.9974647 C55.3601207,49.8275067 55.196173,47.5083854 54.8857789,45.0881434 Z M35.6483815,93.5581308 L37.8705928,81.1526496 C38.3394786,78.5350975 34.9573926,75.2315569 31.5419571,75.2315569 C28.1294213,75.2315569 24.6600201,78.5322987 25.1294072,81.1526496 L27.3379339,93.4817369 C25.3969994,93.261143 23.9415338,92.8748804 22.9715372,92.3229491 C14.5639262,76.4320018 10.3601207,62.9901737 10.3601207,51.9974647 C10.3601207,41.1566401 14.5490122,27.3562365 19.4744814,16.8009182 C24.535354,20.1961869 37.5357903,20.1276442 44.2326839,16.7729074 C49.1638132,27.3318126 53.3601207,41.147048 53.3601207,51.9974647 C53.3601207,62.873018 49.2626006,76.3148462 41.0675603,92.3229491 C39.82981,92.9453509 38.0234171,93.3570781 35.6483815,93.5581308 Z M32.1474652,53.5 C39.327167,53.5 45.1474652,47.6797017 45.1474652,40.5 C45.1474652,33.3202983 39.327167,27.5 32.1474652,27.5 C24.9677635,27.5 19.1474652,33.3202983 19.1474652,40.5 C19.1474652,47.6797017 24.9677635,53.5 32.1474652,53.5 Z M31.5419571,77.2315569 C34.151152,77.2315569 36.0800055,79.8058875 35.9019287,80.8 L33.3224365,95.2 C33.1443597,96.1941125 32.3284271,97 31.5,97 C30.6715729,97 29.8556403,96.1941125 29.6775635,95.2 L27.0980713,80.8 C26.9199945,79.8058875 28.9327622,77.2315569 31.5419571,77.2315569 Z M43.3635864,14.9713241 C37.1549168,18.0999756 24.4894232,18.0999756 20.3515315,14.9713241 C24.468526,6.6128848 28.9470495,0.702033532 31.8601207,0.702033532 C34.7402521,0.702033532 39.2853054,6.76256371 43.3635864,14.9713241 Z M32.1474652,50.5 C26.6246177,50.5 22.1474652,46.0228475 22.1474652,40.5 C22.1474652,34.9771525 26.6246177,30.5 32.1474652,30.5 C37.6703127,30.5 42.1474652,34.9771525 42.1474652,40.5 C42.1474652,46.0228475 37.6703127,50.5 32.1474652,50.5 Z M41.2173149,106.815624 C41.2013856,107.483939 40.6485224,108.014066 39.9824602,107.999696 C39.3163981,107.985327 38.7893614,107.431902 38.8052907,106.763587 L39.0060407,98.3411077 C39.02197,97.672793 39.5748332,97.1426657 40.2408953,97.1570353 C40.9069574,97.1714048 41.4339942,97.7248298 41.4180649,98.3931445 L41.2173149,106.815624 Z M41.3032086,113.357676 C41.2894596,114.026034 40.7383244,114.55797 40.0722138,114.545789 C39.4061031,114.533607 38.8772595,113.98192 38.8910084,113.313562 L38.920147,111.897095 C38.933896,111.228736 39.4850311,110.696801 40.1511418,110.708982 C40.8172525,110.721164 41.3460961,111.272851 41.3323471,111.941209 L41.3032086,113.357676 Z M25.0727366,106.815624 C25.0568073,107.483939 24.503944,108.014066 23.8378819,107.999696 C23.1718198,107.985327 22.6447831,107.431902 22.6607124,106.763587 L22.8614623,98.3411077 C22.8773916,97.672793 23.4302549,97.1426657 24.096317,97.1570353 C24.7623791,97.1714048 25.2894159,97.7248298 25.2734866,98.3931445 L25.0727366,106.815624 Z M24.7550158,113.357676 C24.7412668,114.026034 24.1901317,114.55797 23.524021,114.545789 C22.8579103,114.533607 22.3290667,113.98192 22.3428157,113.313562 L22.3719542,111.897095 C22.3857032,111.228736 22.9368384,110.696801 23.602949,110.708982 C24.2690597,110.721164 24.7979034,111.272851 24.7841544,111.941209 L24.7550158,113.357676 Z M32.8234273,122.6202 C32.8064255,123.288491 32.2527142,123.817726 31.5866786,123.80228 C30.920643,123.786834 30.3944972,123.232557 30.4114991,122.564266 L30.448121,121.124767 C30.4651229,120.456476 31.0188341,119.927241 31.6848697,119.942687 C32.3509053,119.958133 32.8770511,120.51241 32.8600493,121.180701 L32.8234273,122.6202 Z M32.9637829,116.219701 C32.9565495,116.888146 32.4106132,117.425452 31.7443999,117.419808 C31.0781866,117.414164 30.5439778,116.867706 30.5512111,116.199261 L30.7113799,101.397815 C30.7186133,100.72937 31.2645496,100.192064 31.9307629,100.197708 C32.5969762,100.203352 33.131185,100.74981 33.1239517,101.418255 L32.9637829,116.219701 Z" id="Combined-Shape"></path>
                </g>
            </g>
            <g id="Group-2" transform="translate(131.000000, 18.000000)">
                <path d="M46.8229,36.8076 C43.4689,31.1776 35.8019,26.2656 27.7749,26.2656 C14.9569,26.2656 7.5289,36.9276 7.5289,50.9436 C7.5289,64.9596 14.9569,75.5016 27.7749,75.5016 C35.8019,75.5016 43.4689,70.5906 46.8229,64.9596 L46.8229,36.8076 Z M7.0519,90.9926 C7.4719,90.4326 8.3039,90.3756 8.7779,90.8916 C13.5769,96.1136 18.9369,98.0236 27.0559,98.0236 C37.5979,98.0236 46.8229,92.7526 46.8229,79.4556 L46.8229,70.3506 C42.7499,76.2206 35.3219,81.1316 26.6969,81.1316 C11.3629,81.1316 0.8209,69.5126 0.8209,50.9436 C0.8209,32.6146 11.3629,20.6356 26.6969,20.6356 C34.9629,20.6356 42.1509,24.8286 46.8229,31.4166 L46.8229,23.2066 C46.8229,22.5806 47.3309,22.0726 47.9569,22.0726 L52.0379,22.0726 C52.6639,22.0726 53.1719,22.5806 53.1719,23.2066 L53.1719,79.3346 C53.1719,97.0646 41.1919,103.4146 27.0559,103.4146 C17.6889,103.4146 11.5589,101.7406 5.0019,95.3726 C4.5949,94.9766 4.5489,94.3296 4.8899,93.8756 L7.0519,90.9926 Z" id="Fill-22"></path>
                <path d="M75.9362,48.0689 L117.9842,48.0689 C117.8652,38.2449 111.3962,26.0259 96.9002,26.0259 C83.2442,26.0259 76.4152,38.0059 75.9362,48.0689 M97.0202,20.6349 C114.6302,20.6349 124.3332,34.6519 124.3332,51.3029 L124.3332,51.8469 C124.3332,52.4729 123.8262,52.9809 123.2002,52.9809 L75.9362,52.9809 C76.5352,65.5599 84.9202,75.9819 98.5782,75.9819 C105.4492,75.9819 111.7912,73.5449 116.6072,68.8719 C117.0972,68.3969 117.8792,68.4259 118.3032,68.9599 L120.1112,71.2369 C120.4702,71.6879 120.4392,72.3439 120.0282,72.7479 C114.3902,78.2859 107.2912,81.3719 98.0982,81.3719 C81.2072,81.3719 69.1072,68.7939 69.1072,50.9439 C69.1072,34.1729 80.9672,20.6349 97.0202,20.6349" id="Fill-24"></path>
                <path d="M141.5221,0.0303 L145.4841,0.0303 C146.1101,0.0303 146.6181,0.5383 146.6181,1.1643 L146.6181,78.8013 C146.6181,79.4263 146.1101,79.9343 145.4841,79.9343 L141.5221,79.9343 C140.8961,79.9343 140.3881,79.4263 140.3881,78.8013 L140.3881,1.1643 C140.3881,0.5383 140.8961,0.0303 141.5221,0.0303" id="Fill-26"></path>
                <path d="M208.6725,36.8076 C205.3185,31.1776 197.7705,26.2656 189.6245,26.2656 C176.8065,26.2656 169.3785,37.0476 169.3785,51.0636 C169.3785,65.0786 176.8065,75.7416 189.6245,75.7416 C197.7705,75.7416 205.3185,70.9506 208.6725,65.4386 L208.6725,36.8076 Z M208.6725,70.7096 C204.5995,76.7006 197.1715,81.3716 188.5465,81.3716 C173.2125,81.3716 162.6705,69.6316 162.6705,51.0636 C162.6705,32.7346 173.2125,20.6356 188.5465,20.6356 C196.8125,20.6356 203.9995,24.8286 208.6725,31.4166 L208.6725,1.1636 C208.6725,0.5376 209.1805,0.0306 209.8065,0.0306 L213.8875,0.0306 C214.5135,0.0306 215.0215,0.5376 215.0215,1.1636 L215.0215,78.8006 C215.0215,79.4266 214.5135,79.9346 213.8875,79.9346 L209.8065,79.9346 C209.1805,79.9346 208.6725,79.4266 208.6725,78.8006 L208.6725,70.7096 Z" id="Fill-28"></path>
                <path d="M260.3087,70.2315 C270.3717,70.2315 276.7207,62.3245 276.7207,51.0635 C276.7207,39.8025 270.3717,31.7765 260.3087,31.7765 C254.4387,31.7765 248.2087,35.3705 245.4537,39.6825 L245.4537,62.5635 C248.2087,66.8775 254.4387,70.2315 260.3087,70.2315 M234.0087,0.0305 L244.3197,0.0305 C244.9457,0.0305 245.4537,0.5385 245.4537,1.1645 L245.4537,30.0995 C250.0057,23.9895 256.7137,20.6355 264.0217,20.6355 C278.8767,20.6355 289.6587,32.3755 289.6587,51.0635 C289.6587,70.1115 278.7567,81.3725 264.0217,81.3725 C256.4747,81.3725 249.8857,77.7785 245.4537,72.0285 L245.4537,78.8005 C245.4537,79.4265 244.9457,79.9345 244.3197,79.9345 L234.0087,79.9345 C233.3827,79.9345 232.8747,79.4265 232.8747,78.8005 L232.8747,1.1645 C232.8747,0.5385 233.3827,0.0305 234.0087,0.0305" id="Fill-30"></path>
                <path d="M345.3673,50.9439 C345.3673,40.7609 339.3783,31.7769 328.5963,31.7769 C317.9333,31.7769 311.9443,40.7609 311.9443,50.9439 C311.9443,61.2459 317.9333,70.2319 328.5963,70.2319 C339.3783,70.2319 345.3673,61.2459 345.3673,50.9439 M298.8873,50.9439 C298.8873,34.4119 310.2663,20.6349 328.5963,20.6349 C347.1643,20.6349 358.4253,34.4119 358.4253,50.9439 C358.4253,67.5959 347.1643,81.3719 328.5963,81.3719 C310.2663,81.3719 298.8873,67.5959 298.8873,50.9439" id="Fill-32"></path>
                <path d="M414.0138,50.9439 C414.0138,40.7609 408.0248,31.7769 397.2428,31.7769 C386.5798,31.7769 380.5908,40.7609 380.5908,50.9439 C380.5908,61.2459 386.5798,70.2319 397.2428,70.2319 C408.0248,70.2319 414.0138,61.2459 414.0138,50.9439 M367.5338,50.9439 C367.5338,34.4119 378.9128,20.6349 397.2428,20.6349 C415.8108,20.6349 427.0718,34.4119 427.0718,50.9439 C427.0718,67.5959 415.8108,81.3719 397.2428,81.3719 C378.9128,81.3719 367.5338,67.5959 367.5338,50.9439" id="Fill-34"></path>
                <path d="M439.755,64.4492 C440.129,63.8572 440.939,63.7422 441.461,64.2092 C445.752,68.0402 453.151,71.4282 460.139,71.4282 C467.686,71.4282 471.52,68.6742 471.52,64.3602 C471.52,59.3292 465.409,57.5322 458.342,55.9752 C448.399,53.8192 436.539,51.1832 436.539,38.2452 C436.539,28.7812 444.685,20.6352 459.3,20.6352 C468.681,20.6352 475.877,23.8032 481.097,28.1582 C481.522,28.5122 481.615,29.1292 481.332,29.6042 L477.305,36.3772 C476.933,37.0042 476.083,37.1152 475.554,36.6152 C471.919,33.1832 465.968,30.6982 459.42,30.6982 C452.831,30.6982 448.638,33.0942 448.638,37.1672 C448.638,41.5992 454.389,43.1572 461.217,44.7142 C471.279,46.8702 483.619,49.7452 483.619,63.4032 C483.619,73.5852 475.113,81.3722 459.54,81.3722 C450.082,81.3722 441.403,78.4852 435.425,73.0332 C435.022,72.6662 434.952,72.0532 435.243,71.5922 L439.755,64.4492 Z" id="Fill-36"></path>
                <path d="M498.8341,66.5176 L498.8341,33.1856 C498.8341,33.1356 498.7921,33.0946 498.7411,33.0946 L490.3841,33.0946 C489.7571,33.0946 489.2501,32.5866 489.2501,31.9606 L489.2501,23.2066 C489.2501,22.5806 489.7571,22.0726 490.3841,22.0726 L498.7411,22.0726 C498.7921,22.0726 498.8341,22.0316 498.8341,21.9806 L498.8341,7.3936 C498.8341,6.7676 499.3411,6.2596 499.9681,6.2596 L510.2781,6.2596 C510.9041,6.2596 511.4121,6.7676 511.4121,7.3936 L511.4121,21.9806 C511.4121,22.0316 511.4531,22.0726 511.5041,22.0726 L522.0191,22.0726 C522.6451,22.0726 523.1521,22.5806 523.1521,23.2066 L523.1521,31.9606 C523.1521,32.5866 522.6451,33.0946 522.0191,33.0946 L511.5041,33.0946 C511.4531,33.0946 511.4121,33.1356 511.4121,33.1856 L511.4121,63.4036 C511.4121,67.3566 513.3291,70.2316 516.9231,70.2316 C518.7361,70.2316 520.4811,69.6826 521.6381,68.9476 C522.1221,68.6396 522.7611,68.8496 522.9341,69.3956 L525.3061,76.8896 C525.4601,77.3776 525.2941,77.9076 524.8941,78.2286 C522.5821,80.0846 519.0261,81.3716 513.6881,81.3716 C503.9851,81.3716 498.8341,76.1006 498.8341,66.5176" id="Fill-38"></path>
            </g>
        </g>
    </g>
</svg>