<?xml version="1.0" encoding="UTF-8"?>
<svg width="42px" height="48px" viewBox="0 0 42 48" version="1.1" xmlns="http://www.w3.org/2000/svg" xmlns:xlink="http://www.w3.org/1999/xlink">
    <!-- Generator: Sketch 53.2 (72643) - https://sketchapp.com -->
    <title>icon-receive-tips</title>
    <desc>Created with Sketch.</desc>
    <g id="Desktop" stroke="none" stroke-width="1" fill="none" fill-rule="evenodd" stroke-linecap="round" stroke-linejoin="round">
        <g id="dkt-geldboost-lp-v3" transform="translate(-1079.000000, -3678.000000)" stroke="#F69D00" stroke-width="1.2">
            <g id="Group-5" transform="translate(164.000000, 3678.000000)">
                <g id="icon-receive-tips" transform="translate(916.000000, 0.000000)">
                    <path d="M26.052,39.914 C28.8428396,37.866674 30.5234852,34.6384154 30.6,31.178 C30.6,24.554 24.156,19.178 16.2,19.178 C14.6293214,19.1778856 13.0662894,19.3966562 11.556,19.828 C10.6559409,18.5628115 9.39494528,17.5987668 7.938,17.062 C7.63362206,16.957029 7.29732059,17.0050338 7.03446816,17.1909731 C6.77161572,17.3769125 6.61436984,17.6780385 6.612,18 L6.612,22.28 C4.99025538,23.4845548 3.73886404,25.1198171 3,27 L1,27 C0.44771525,27 0,27.4477153 0,28 L0,34 C0,34.5522847 0.44771525,35 1,35 L3,35 C3.80183219,37.1414801 5.20290071,39.0070257 7.036,40.374 L5.784,43.774 C5.4603459,44.5844718 5.60214623,45.5067565 6.15431536,46.1825714 C6.7064845,46.8583863 7.58198664,47.1812058 8.44071279,47.0256233 C9.29943894,46.8700408 10.0060321,46.26058 10.286,45.434 L11.38,42.466 C14.7842039,43.4859957 18.4233193,43.4069149 21.78,42.24 L22.958,45.44 C23.2379679,46.26658 23.9445611,46.8760408 24.8032872,47.0316233 C25.6620134,47.1872058 26.5375155,46.8643863 27.0896846,46.1885714 C27.6418538,45.5127565 27.7836541,44.5904718 27.46,43.78 L26.052,39.914 Z" id="Path"></path>
                    <path d="M30.6,31.178 C33.8,31.178 35.4,29.578 35.4,27.178" id="Path"></path>
                    <path d="M9.508,28 C9.78414237,28 10.008,28.2238576 10.008,28.5 C10.008,28.7761424 9.78414237,29 9.508,29 C9.23185763,29 9.008,28.7761424 9.008,28.5 C9.008,28.2238576 9.23185763,28 9.508,28" id="Path"></path>
                    <path d="M17.494,13.546 C16.9000544,8.23345146 20.1126601,3.23231948 25.1911847,1.56362796 C30.2697093,-0.105063562 35.8224964,2.01595305 38.495285,6.64543949 C41.1680735,11.2749259 40,19.7578125 33,22.0380859" id="Path" fill="#FFF8E1"></path>
                    <g id="Group-11" transform="translate(22.497000, 5.480000)">
                        <path d="M0,7.826 L6.5,7.826" id="Path"></path>
                        <path d="M0,5.226 L6.5,5.226" id="Path"></path>
                        <path d="M8.4747,-1.19904087e-13 C5.26390992,0.0477615848 2.68609781,2.6642047 2.68609781,5.87535 C2.68609781,9.0864953 5.26390992,11.7029384 8.4747,11.7507" id="Path"></path>
                    </g>
                </g>
            </g>
        </g>
    </g>
</svg>