<?xml version="1.0" encoding="UTF-8"?>
<svg width="54px" height="50px" viewBox="0 0 54 50" version="1.1" xmlns="http://www.w3.org/2000/svg" xmlns:xlink="http://www.w3.org/1999/xlink">
    <!-- Generator: Sketch 53.2 (72643) - https://sketchapp.com -->
    <title>icon-bank-connect</title>
    <desc>Created with Sketch.</desc>
    <g id="Desktop" stroke="none" stroke-width="1" fill="none" fill-rule="evenodd">
        <g id="dkt-geldboost-lp-v3" transform="translate(-693.000000, -3677.000000)">
            <g id="icon-bank-connect" transform="translate(693.000000, 3678.000000)">
                <g id="_Layer_">
                    <rect id="Rectangle" stroke="#F69D00" fill="#FFF8E1" fill-rule="nonzero" stroke-linecap="round" stroke-linejoin="round" x="4.59574468" y="20.1142857" width="44.8085106" height="22.8571429"></rect>
                    <path d="M53.4255319,47.5428571 L0.574468085,47.5428571 L0.574468085,44.1142857 C0.574468085,43.4831031 1.08886433,42.9714286 1.72340426,42.9714286 L52.2765957,42.9714286 C52.9111357,42.9714286 53.4255319,43.4831031 53.4255319,44.1142857 L53.4255319,47.5428571 Z" id="Path" fill="#FFFFFF" fill-rule="nonzero"></path>
                    <path d="M53.4255319,47.5428571 L0.574468085,47.5428571 L0.574468085,44.1142857 C0.574468085,43.4831031 1.08886433,42.9714286 1.72340426,42.9714286 L52.2765957,42.9714286 C52.9111357,42.9714286 53.4255319,43.4831031 53.4255319,44.1142857 L53.4255319,47.5428571 Z" id="Path" stroke="#F69D00" stroke-linecap="round" stroke-linejoin="round"></path>
                    <path d="M31.5957447,40.6857143 L22.4042553,40.6857143 C21.7697154,40.6857143 21.2553191,41.1973889 21.2553191,41.8285714 C21.2553191,42.459754 21.7697154,42.9714286 22.4042553,42.9714286 L31.5957447,42.9714286 C32.2302846,42.9714286 32.7446809,42.459754 32.7446809,41.8285714 C32.7446809,41.1973889 32.2302846,40.6857143 31.5957447,40.6857143 Z" id="Path" stroke="#F69D00" fill="#FFFFFF" fill-rule="nonzero" stroke-linecap="round" stroke-linejoin="round"></path>
                    <path d="M31.5957447,20.1142857 L22.4042553,20.1142857 C21.7697154,20.1142857 21.2553191,20.6259603 21.2553191,21.2571429 C21.2553191,21.8883254 21.7697154,22.4 22.4042553,22.4 L31.5957447,22.4 C32.2302846,22.4 32.7446809,21.8883254 32.7446809,21.2571429 C32.7446809,20.6259603 32.2302846,20.1142857 31.5957447,20.1142857 Z" id="Path" stroke="#F69D00" fill="#FFFFFF" fill-rule="nonzero" stroke-linecap="round" stroke-linejoin="round"></path>
                    <rect id="Rectangle" fill="#FFFFFF" fill-rule="nonzero" x="23.5531915" y="22.4" width="6.89361702" height="18.2857143"></rect>
                    <rect id="Rectangle" stroke="#F69D00" stroke-linecap="round" stroke-linejoin="round" x="23.5531915" y="22.4" width="6.89361702" height="18.2857143"></rect>
                    <path d="M12.6382979,40.6857143 L3.44680851,40.6857143 C2.81226859,40.6857143 2.29787234,41.1973889 2.29787234,41.8285714 C2.29787234,42.459754 2.81226859,42.9714286 3.44680851,42.9714286 L12.6382979,42.9714286 C13.2728378,42.9714286 13.787234,42.459754 13.787234,41.8285714 C13.787234,41.1973889 13.2728378,40.6857143 12.6382979,40.6857143 Z" id="Path" stroke="#F69D00" fill="#FFFFFF" fill-rule="nonzero" stroke-linecap="round" stroke-linejoin="round"></path>
                    <path d="M12.6382979,20.1142857 L3.44680851,20.1142857 C2.81226859,20.1142857 2.29787234,20.6259603 2.29787234,21.2571429 C2.29787234,21.8883254 2.81226859,22.4 3.44680851,22.4 L12.6382979,22.4 C13.2728378,22.4 13.787234,21.8883254 13.787234,21.2571429 C13.787234,20.6259603 13.2728378,20.1142857 12.6382979,20.1142857 Z" id="Path" stroke="#F69D00" fill="#FFFFFF" fill-rule="nonzero" stroke-linecap="round" stroke-linejoin="round"></path>
                    <rect id="Rectangle" fill="#FFFFFF" fill-rule="nonzero" x="4.59574468" y="22.4" width="6.89361702" height="18.2857143"></rect>
                    <path d="M41.3617021,40.6857143 L50.5531915,40.6857143 C51.1877314,40.6857143 51.7021277,41.1973889 51.7021277,41.8285714 C51.7021277,42.459754 51.1877314,42.9714286 50.5531915,42.9714286 L41.3617021,42.9714286 C40.7271622,42.9714286 40.212766,42.459754 40.212766,41.8285714 C40.212766,41.1973889 40.7271622,40.6857143 41.3617021,40.6857143 Z" id="Path" stroke="#F69D00" fill="#FFFFFF" fill-rule="nonzero" stroke-linecap="round" stroke-linejoin="round"></path>
                    <path d="M41.3617021,20.1142857 L50.5531915,20.1142857 C51.1877314,20.1142857 51.7021277,20.6259603 51.7021277,21.2571429 C51.7021277,21.8883254 51.1877314,22.4 50.5531915,22.4 L41.3617021,22.4 C40.7271622,22.4 40.212766,21.8883254 40.212766,21.2571429 C40.212766,20.6259603 40.7271622,20.1142857 41.3617021,20.1142857 Z" id="Path" stroke="#F69D00" fill="#FFFFFF" fill-rule="nonzero" stroke-linecap="round" stroke-linejoin="round"></path>
                    <rect id="Rectangle" fill="#FFFFFF" fill-rule="nonzero" x="42.5106383" y="22.4" width="6.89361702" height="18.2857143"></rect>
                    <rect id="Rectangle" stroke="#F69D00" stroke-linecap="round" stroke-linejoin="round" x="42.5106383" y="22.4" width="6.89361702" height="18.2857143"></rect>
                    <path d="M3.78,16.1142857 C3.56631841,16.4579209 3.45110479,16.8531072 3.44680851,17.2571429 L3.44680851,20.1142857 L50.5531915,20.1142857 L50.5531915,17.2571429 C50.5488952,16.8531072 50.4336816,16.4579209 50.22,16.1142857 L3.78,16.1142857 Z" id="Path" fill="#FFFFFF" fill-rule="nonzero"></path>
                    <path d="M3.78,16.1142857 C3.56631841,16.4579209 3.45110479,16.8531072 3.44680851,17.2571429 L3.44680851,20.1142857 L50.5531915,20.1142857 L50.5531915,17.2571429 C50.5488952,16.8531072 50.4336816,16.4579209 50.22,16.1142857 L3.78,16.1142857 Z" id="Path" stroke="#F69D00" stroke-linecap="round" stroke-linejoin="round"></path>
                    <path d="M11.0182979,16.1142857 L25.6557447,5.64571429 C26.4584068,5.06981575 27.5415932,5.06981575 28.3442553,5.64571429 L42.9817021,16.1142857 L50.22,16.1142857 C50.0609736,15.8570283 49.8543445,15.6321023 49.6110638,15.4514286 L28.3212766,0.468571429 C27.5285258,-0.0856277071 26.4714742,-0.0856277071 25.6787234,0.468571429 L4.38893617,15.4514286 C4.14565548,15.6321023 3.93902636,15.8570283 3.78,16.1142857 L11.0182979,16.1142857 Z" id="Path" stroke="#F69D00" fill="#FFFFFF" fill-rule="nonzero" stroke-linecap="round" stroke-linejoin="round"></path>
                    <path d="M25.6557447,5.64571429 L11.0182979,16.1142857 L42.9817021,16.1142857 L28.3442553,5.64571429 C27.5415932,5.06981575 26.4584068,5.06981575 25.6557447,5.64571429 Z" id="Path" fill="#FFF8E1" fill-rule="nonzero"></path>
                    <path d="M25.6557447,5.64571429 L11.0182979,16.1142857 L42.9817021,16.1142857 L28.3442553,5.64571429 C27.5415932,5.06981575 26.4584068,5.06981575 25.6557447,5.64571429 Z" id="Path" stroke="#F69D00" stroke-linecap="round" stroke-linejoin="round"></path>
                    <rect id="Rectangle" stroke="#F69D00" stroke-linecap="round" stroke-linejoin="round" x="4.59574468" y="22.4" width="6.89361702" height="18.2857143"></rect>
                </g>
            </g>
        </g>
    </g>
</svg>